<svg xmlns="http://www.w3.org/2000/svg" xmlns:xlink="http://www.w3.org/1999/xlink" width="411" height="411" version="1.1" viewBox="0 0 411 411"><title>Group@2x</title><desc>Created with Sketch.</desc><defs><path id="path-1" d="M205.5,411 C92.0054839,411 0,318.994516 0,205.5 C0,92.0054839 92.0054839,0 205.5,0 C318.994516,0 411,92.0054839 411,205.5 C411,318.994516 318.994516,411 205.5,411 Z M98.7734359,207.434637 L117.609203,188.369166 L137.134083,168.844285 L120.135952,152.075859 L64.7771739,207.434637 L120.135952,262.793415 L137.134083,245.795284 L98.7734359,207.434637 Z M227.946109,118.38587 L160.18329,286.529543 L187.747827,286.529543 L255.510646,118.38587 L227.946109,118.38587 Z M312.61773,207.434637 L274.257083,245.795284 L291.255214,262.793415 L346.613992,207.434637 L291.255214,152.075859 L274.257083,168.844285 L293.781964,188.369166 L312.61773,207.434637 Z"/></defs><g id="LOGO" fill="none" fill-rule="evenodd" stroke="none" stroke-width="1"><g id="pride-codes-logo" transform="translate(-7.000000, -7.000000)"><g id="Group" transform="translate(7.000000, 7.000000)"><circle id="Oval" cx="205" cy="207" r="198" fill="#FFF"/><mask id="mask-2" fill="#fff"><use xlink:href="#path-1"/></mask><use id="Combined-Shape" fill="#000" fill-rule="nonzero" xlink:href="#path-1"/><g id="Rainbow" mask="url(#mask-2)"><g transform="translate(205.302794, 205.763227) rotate(-68.500000) translate(-205.302794, -205.763227) translate(-7.697206, -5.236773)"><rect id="Rectangle-2" width="425.524" height="70.222" x="-.001" y=".003" fill="#D3555C"/><rect id="Rectangle-2-Copy" width="425.524" height="70.222" x="-.001" y="70.225" fill="#F48D3A"/><rect id="Rectangle-2-Copy-2" width="425.524" height="70.222" x="-.001" y="140.447" fill="#FDC753"/><rect id="Rectangle-2-Copy-3" width="425.524" height="70.222" x="-.001" y="210.67" fill="#70BC53"/><rect id="Rectangle-2-Copy-4" width="425.524" height="70.222" x="-.001" y="280.892" fill="#249CD5"/><rect id="Rectangle-2-Copy-5" width="425.524" height="70.222" x="-.001" y="351.114" fill="#9D61A4"/></g></g></g></g></g></svg>
